<svg width="32" height="32" viewBox="0 0 32 32" fill="none"
    xmlns="http://www.w3.org/2000/svg">
    <g id="icon">
        <g id="path">
            <path d="M20.4098 14.9575L25.2878 19.8635C26.7779 21.3622 26.7734 23.7875 25.2778 25.2806C23.7821 26.7738 21.3617 26.7693 19.8716 25.2706L17.3138 22.6981L15.6158 24.3942L18.1731 26.9663C20.5978 29.4048 24.5363 29.4121 26.97 26.9825C29.4036 24.5529 29.4109 20.6065 26.9863 18.1679L22.1083 13.2619C19.6836 10.8233 15.7452 10.816 13.3115 13.2456C13.0359 13.5208 12.7914 13.8153 12.5781 14.125L14.3228 15.8676C14.4979 15.5366 14.7249 15.2259 15.0037 14.9475C16.4993 13.4544 18.9197 13.4589 20.4098 14.9575Z" fill="#232425" fill-opacity="0.92"/>
            <path d="M11.5901 17.0424L6.71216 12.1365C5.22206 10.6378 5.22655 8.2125 6.72219 6.71937C8.21782 5.22624 10.6382 5.23071 12.1283 6.72937L14.6319 9.24737L16.3276 7.54888L13.8268 5.03374C11.4021 2.59514 7.46368 2.58785 5.03 5.01746C2.59632 7.44706 2.58902 11.3935 5.01368 13.8321L9.89164 18.7381C12.3163 21.1767 16.2548 21.184 18.6885 18.7544C18.9593 18.484 19.2 18.1949 19.4107 17.8911L17.6677 16.1501C17.4939 16.4745 17.2701 16.7791 16.9963 17.0525C15.5006 18.5456 13.0802 18.5411 11.5901 17.0424Z" fill="#232425" fill-opacity="0.92"/>
        </g>
    </g>
</svg>
