<svg width="256" height="256" viewBox="0 0 256 256" fill="none" xmlns="http://www.w3.org/2000/svg">
<g clip-path="url(#clip0_261_1812)">
<mask id="mask0_261_1812" style="mask-type:luminance" maskUnits="userSpaceOnUse" x="0" y="0" width="256" height="256">
<path d="M216 0H40C17.9086 0 0 17.9086 0 40V216C0 238.091 17.9086 256 40 256H216C238.091 256 256 238.091 256 216V40C256 17.9086 238.091 0 216 0Z" fill="white"/>
</mask>
<g mask="url(#mask0_261_1812)">
<path d="M256 0H0V256H256V0Z" fill="#FAF9F4"/>
<path d="M128.001 27.6948C107.77 27.6948 88.3678 35.7409 74.0625 50.063C59.7571 64.3851 51.7207 83.81 51.7207 104.065H67.2436C67.2504 87.9327 73.6534 72.4633 85.0457 61.0553C96.4376 49.6471 111.888 43.2335 128.001 43.2234C144.102 43.2402 159.54 49.6516 170.925 61.0507C182.312 72.4498 188.716 87.9055 188.733 104.026V187.282L128.001 211.593L67.2691 187.282V135.096H157.762V166.192L128.001 178.093L98.2263 166.192V150.701H82.7156V176.68L128.001 194.83L173.273 176.705V119.567H51.7207V197.757L128.001 228.305L204.281 197.757V103.975C204.257 83.7364 196.209 64.3343 181.907 50.0314C167.605 35.7286 148.216 27.6948 128.001 27.6948Z" fill="#313139"/>
<path d="M128.006 74.5878C135.853 74.598 143.375 77.7607 148.924 83.3822C154.473 89.0037 157.593 96.6255 157.604 104.575H173.048C173.038 92.4742 168.289 80.8713 159.845 72.3133C151.401 63.7553 139.95 58.9411 128.006 58.9276C116.062 58.9411 104.611 63.7548 96.1634 72.3126C87.7176 80.8702 82.9665 92.473 82.9531 104.575H98.4097C98.4169 96.6243 101.537 89.0007 107.085 83.3785C112.635 77.7561 120.159 74.5946 128.006 74.5878Z" fill="#313139"/>
</g>
</g>
<defs>
<clipPath id="clip0_261_1812">
<rect width="256" height="256" fill="white"/>
</clipPath>
</defs>
</svg>
