<svg xmlns="http://www.w3.org/2000/svg" viewBox="86 84 401 401"><style>path{fill:#035EFC}@media(prefers-color-scheme:dark){path{fill:#fff}}</style><path d="m200.3 304.1 83-143.4 36.8 21.2L237.3 325c-6.2 10.8-3.6 22.3 7.8 28.9 11.3 6.5 22.7 3.1 29.2-8.2l71.1-122.9c17.8-30.7 10.1-69.4-22.7-88.3-34.7-20-71.3-3.6-86.3 22.4l-70.7 122.2c-35.3 61-7.2 123 36.8 148.3 37.2 21.5 110.7 20.7 146.5-41.2 0 0 80.3-138.7 81.5-140.8l36.8 21.2-83.2 143.8c-47 81.2-139.2 90.4-202.8 53.7-65-37.5-101.2-121.8-54.3-202.9l72.7-125.6c31.4-54.3 99.4-64.1 144.5-38.1s70.8 89.8 39.1 144.7l-72.7 125.6c-16.5 28.4-55.4 40.8-86.7 22.7-30.9-17.8-42.4-53.9-23.5-86.6Z"/></svg>
