<svg width="16" height="16" viewBox="0 0 16 16" fill="none"
    xmlns="http://www.w3.org/2000/svg">
    <g clip-path="url(#clip0_1_6468)">
        <path fill-rule="evenodd" clip-rule="evenodd" d="M8.77649 7.73942L9.77649 9.47147L10.9198 8.81141L9.91976 7.07936L11.063 6.41929L12.7297 9.30604L13.873 8.64597L12.2063 5.75922L14.0356 4.70324L12.6829 3.94458L6.47887 7.52651C6.0972 7.07318 5.57772 6.7281 4.96189 6.56309C3.3615 6.13426 1.71648 7.08401 1.28766 8.68441C0.858834 10.2848 1.80858 11.9298 3.40898 12.3586C5.00938 12.7875 6.65439 11.8377 7.08321 10.2373C7.22196 9.71952 7.21639 9.19704 7.09117 8.7126L8.77649 7.73942ZM3.75407 11.0707C4.64318 11.309 5.55708 10.7813 5.79531 9.89223C6.03355 9.00312 5.50591 8.08923 4.6168 7.85099C3.72769 7.61275 2.8138 8.14039 2.57556 9.0295C2.33732 9.91861 2.86496 10.8325 3.75407 11.0707Z" fill="#0f6476"/>
    </g>
    <defs>
        <clipPath id="clip0_1_6468">
            <rect width="16" height="16" fill="white"/>
        </clipPath>
    </defs>
</svg>
