<svg width="93" height="24" viewBox="0 0 93 24" fill="none"
    xmlns="http://www.w3.org/2000/svg">
    <path fill-rule="evenodd" clip-rule="evenodd" d="M42.0481 15.476C42.0812 16.5293 42.4316 17.3552 43.0995 17.9538L43.0973 17.9593C43.8012 18.5872 44.7733 18.9011 46.0136 18.9011C46.6842 18.9146 47.3498 18.7845 47.9655 18.5196C48.4948 18.2904 48.946 17.9134 49.2646 17.4342C49.5795 16.944 49.7405 16.3714 49.727 15.7896C49.7343 15.1098 49.571 14.5346 49.2371 14.0638C48.9031 13.5931 48.3894 13.224 47.6958 12.9565L46.018 12.2986C45.5175 12.0969 45.1615 11.8981 44.9501 11.7022C44.849 11.6132 44.7683 11.5036 44.7134 11.3809C44.6585 11.2581 44.6308 11.125 44.632 10.9906C44.6264 10.8524 44.6534 10.7148 44.7108 10.5888C44.7681 10.4628 44.8542 10.3518 44.9622 10.2648C45.178 10.0872 45.4738 9.99841 45.8496 9.99841C46.3024 9.99914 46.6488 10.1238 46.8888 10.3723C47.1046 10.5952 47.2239 10.9062 47.2466 11.3053C47.2486 11.3447 47.2657 11.3818 47.2944 11.4089C47.3231 11.4361 47.3612 11.4512 47.4007 11.4511H49.4374C49.4789 11.4489 49.5178 11.4305 49.5458 11.3999C49.5738 11.3694 49.5886 11.3291 49.5871 11.2878C49.5758 10.7276 49.4039 10.1824 49.0919 9.7162C48.7798 9.25003 48.3405 8.88234 47.8257 8.65643C47.2183 8.38226 46.557 8.24702 45.8903 8.26063C45.2386 8.24712 44.5915 8.37234 43.9923 8.62792C43.4814 8.84387 43.0449 9.20356 42.7362 9.66292C42.4384 10.1232 42.2851 10.6614 42.2958 11.2088C42.2786 11.8089 42.4609 12.3979 42.8144 12.8841C43.1608 13.3497 43.6709 13.7068 44.3446 13.9553L46.1644 14.6603C46.6261 14.8379 46.9461 15.0206 47.1244 15.2085C47.3077 15.4105 47.4035 15.6765 47.3908 15.9485C47.3997 16.103 47.3724 16.2574 47.3111 16.3995C47.2498 16.5417 47.1561 16.6677 47.0374 16.7675C46.8019 16.9598 46.4675 17.0559 46.0345 17.0559C45.5244 17.0566 45.1226 16.9028 44.829 16.5943C44.5597 16.3158 44.4129 15.9379 44.3887 15.4606C44.3864 15.4214 44.3692 15.3844 44.3406 15.3573C44.312 15.3302 44.274 15.315 44.2345 15.3148H42.199C42.1576 15.3165 42.1186 15.3344 42.0903 15.3646C42.0621 15.3948 42.047 15.4348 42.0481 15.476ZM24.271 8.58768C24.2419 8.61667 24.2256 8.65599 24.2256 8.69699V18.456C24.2259 18.4969 24.2423 18.5361 24.2714 18.565C24.3004 18.5939 24.3397 18.6103 24.3808 18.6106H28.0391C29.0879 18.6106 30.0024 18.3847 30.7826 17.933C31.5402 17.5043 32.1607 16.8711 32.5727 16.1064C32.9806 15.326 33.1936 14.4591 33.1936 13.5792C33.1936 12.6994 32.9806 11.8325 32.5727 11.052C32.1581 10.2893 31.5382 9.65676 30.7826 9.22545C30.0017 8.77009 29.0872 8.5424 28.0391 8.5424H24.3808C24.3396 8.5424 24.3002 8.55869 24.271 8.58768ZM29.4428 16.2281C28.9537 16.522 28.3899 16.6693 27.8189 16.6524L26.718 16.6502C26.6769 16.6502 26.6374 16.6339 26.6083 16.6049C26.5792 16.576 26.5628 16.5366 26.5628 16.4956V10.6497C26.5628 10.6087 26.5792 10.5693 26.6083 10.5404C26.6374 10.5114 26.6769 10.4951 26.718 10.4951H27.8189C28.3899 10.4782 28.9537 10.6255 29.4428 10.9194C29.8805 11.1912 30.2293 11.584 30.4468 12.0498C30.6655 12.5283 30.7787 13.048 30.7787 13.5737C30.7787 14.0995 30.6655 14.6192 30.4468 15.0977C30.2297 15.5638 29.8808 15.9566 29.4428 16.2281ZM60.1404 8.54131H62.1672C62.2084 8.54131 62.2478 8.55759 62.277 8.58658C62.3061 8.61558 62.3224 8.6549 62.3224 8.6959V16.386C62.3224 16.427 62.3388 16.4663 62.3679 16.4953C62.397 16.5243 62.4365 16.5406 62.4776 16.5406H65.9224C65.9633 16.5409 66.0026 16.5573 66.0314 16.5863C66.0603 16.6152 66.0765 16.6544 66.0765 16.6952V18.4582C66.0765 18.4989 66.0603 18.5379 66.0314 18.5667C66.0025 18.5955 65.9632 18.6117 65.9224 18.6117H60.1371C60.0961 18.6117 60.0568 18.5955 60.0277 18.5668C59.9987 18.538 59.9822 18.499 59.9819 18.4582V8.70028C59.9819 8.67998 59.9859 8.65988 59.9937 8.64112C60.0015 8.62237 60.0129 8.60533 60.0274 8.59097C60.0418 8.57662 60.0589 8.56523 60.0777 8.55746C60.0965 8.54969 60.1167 8.54569 60.1371 8.54569L60.1404 8.54131ZM79.0947 8.5435H76.9457C76.9048 8.5435 76.8654 8.55963 76.8364 8.58839C76.8073 8.61714 76.7908 8.65618 76.7905 8.69699V18.4549C76.7905 18.4752 76.7945 18.4953 76.8023 18.5141C76.8101 18.5328 76.8216 18.5498 76.836 18.5642C76.8504 18.5786 76.8675 18.5899 76.8863 18.5977C76.9052 18.6055 76.9254 18.6095 76.9457 18.6095H78.8734C78.9146 18.6095 78.9541 18.5932 78.9832 18.5642C79.0123 18.5352 79.0287 18.4959 79.0287 18.4549V12.7098C79.0287 12.6754 79.0402 12.642 79.0615 12.6149C79.0827 12.5878 79.1124 12.5685 79.1458 12.56C79.1793 12.5516 79.2146 12.5545 79.2463 12.5684C79.2779 12.5822 79.304 12.6061 79.3204 12.6363L82.4932 18.5273C82.5065 18.5518 82.5262 18.5724 82.5502 18.5869C82.5742 18.6013 82.6017 18.6091 82.6297 18.6095H84.7787C84.8199 18.6095 84.8593 18.5932 84.8884 18.5642C84.9175 18.5352 84.9339 18.4959 84.9339 18.4549V8.69699C84.9339 8.67674 84.9299 8.65669 84.9221 8.638C84.9143 8.6193 84.9028 8.60233 84.8884 8.58807C84.874 8.5738 84.8568 8.56252 84.838 8.55487C84.8192 8.54722 84.799 8.54335 84.7787 8.5435H82.851C82.81 8.5435 82.7707 8.55963 82.7416 8.58839C82.7125 8.61714 82.6961 8.65618 82.6958 8.69699V14.4421C82.6957 14.4765 82.6842 14.5099 82.663 14.537C82.6418 14.5641 82.6121 14.5834 82.5786 14.5918C82.5451 14.6003 82.5098 14.5973 82.4782 14.5835C82.4465 14.5697 82.4205 14.5458 82.404 14.5156L79.2312 8.62463C79.218 8.60003 79.1983 8.57948 79.1743 8.56518C79.1502 8.55089 79.1227 8.54339 79.0947 8.5435ZM86.1042 8.5435H91.9731C91.9934 8.54335 92.0136 8.54722 92.0324 8.55487C92.0512 8.56252 92.0684 8.5738 92.0828 8.58807C92.0972 8.60233 92.1087 8.6193 92.1165 8.638C92.1243 8.65669 92.1283 8.67674 92.1283 8.69699V10.2583C92.128 10.2991 92.1116 10.3381 92.0825 10.3669C92.0534 10.3956 92.0141 10.4118 91.9731 10.4118H88.4425C88.4013 10.4118 88.3618 10.428 88.3327 10.457C88.3036 10.486 88.2873 10.5253 88.2873 10.5663V12.5399C88.2876 12.5807 88.304 12.6197 88.3331 12.6485C88.3622 12.6772 88.4015 12.6933 88.4425 12.6933H91.9731C92.0143 12.6933 92.0538 12.7096 92.0829 12.7386C92.112 12.7676 92.1283 12.8069 92.1283 12.8479V14.3653C92.1283 14.4063 92.112 14.4457 92.0829 14.4747C92.0538 14.5037 92.0143 14.5199 91.9731 14.5199H88.4425C88.4013 14.5199 88.3618 14.5362 88.3327 14.5652C88.3036 14.5942 88.2873 14.6335 88.2873 14.6745V16.5801C88.2873 16.6211 88.3036 16.6604 88.3327 16.6894C88.3618 16.7184 88.4013 16.7347 88.4425 16.7347H91.9731C92.0141 16.7347 92.0534 16.7508 92.0825 16.7795C92.1116 16.8083 92.128 16.8473 92.1283 16.8882V18.4494C92.1283 18.4904 92.112 18.5297 92.0829 18.5587C92.0538 18.5877 92.0143 18.604 91.9731 18.604H86.1042C86.063 18.604 86.0235 18.5877 85.9944 18.5587C85.9653 18.5297 85.949 18.4904 85.949 18.4494V8.69151C85.949 8.6508 85.9652 8.61176 85.9941 8.58297C86.023 8.55419 86.0622 8.53802 86.1031 8.53802L86.1042 8.5435ZM38.5517 8.61805L41.9105 18.4571V18.4549C41.9127 18.4668 41.9127 18.4791 41.9105 18.4911C41.9105 18.5202 41.8989 18.548 41.8783 18.5686C41.8576 18.5892 41.8296 18.6007 41.8004 18.6007H39.6052C39.5718 18.6011 39.5392 18.5906 39.5124 18.5708C39.4856 18.551 39.466 18.523 39.4566 18.4911L39.0339 17H35.6695L35.2467 18.4911C35.2372 18.5229 35.2176 18.5508 35.1908 18.5706C35.164 18.5903 35.1315 18.6009 35.0981 18.6007H32.9051C32.8927 18.6024 32.8801 18.6024 32.8677 18.6007C32.8532 18.5964 32.8398 18.5892 32.8283 18.5795C32.8167 18.5698 32.8073 18.5579 32.8006 18.5444C32.7939 18.5309 32.79 18.5162 32.7892 18.5012C32.7885 18.4862 32.7908 18.4712 32.7961 18.4571L36.1418 8.61805C36.1491 8.59495 36.1638 8.57489 36.1837 8.56101C36.2036 8.54713 36.2276 8.5402 36.2519 8.5413H38.4416C38.4659 8.5402 38.4898 8.54713 38.5097 8.56101C38.5297 8.57489 38.5444 8.59495 38.5517 8.61805ZM37.246 11.472L36.2475 14.987L36.2398 14.9815C36.2381 14.995 36.2381 15.0086 36.2398 15.0221C36.2398 15.0616 36.2555 15.0996 36.2836 15.1275C36.3117 15.1555 36.3498 15.1712 36.3895 15.1712H38.3205C38.334 15.1733 38.3477 15.1733 38.3612 15.1712C38.3802 15.1659 38.3979 15.1569 38.4133 15.1448C38.4288 15.1326 38.4417 15.1176 38.4513 15.1005C38.4609 15.0834 38.4671 15.0645 38.4693 15.0451C38.4716 15.0256 38.4701 15.0059 38.4647 14.987L37.4662 11.472C37.4662 11.4429 37.4546 11.415 37.4339 11.3944C37.4133 11.3739 37.3853 11.3623 37.3561 11.3623C37.3269 11.3623 37.2989 11.3739 37.2782 11.3944C37.2576 11.415 37.246 11.4429 37.246 11.472ZM75.89 18.4571L72.5322 8.61805C72.525 8.59495 72.5102 8.57489 72.4903 8.56101C72.4704 8.54713 72.4464 8.5402 72.4221 8.5413H70.2313C70.207 8.5402 70.1831 8.54713 70.1632 8.56101C70.1433 8.57489 70.1285 8.59495 70.1212 8.61805L66.7767 18.4571C66.7714 18.4712 66.769 18.4862 66.7698 18.5012C66.7706 18.5162 66.7744 18.5309 66.7811 18.5444C66.7878 18.5579 66.7973 18.5698 66.8088 18.5795C66.8204 18.5892 66.8338 18.5964 66.8483 18.6007C66.8603 18.6023 66.8725 18.6023 66.8846 18.6007H69.0776C69.111 18.6011 69.1436 18.5906 69.1704 18.5708C69.1972 18.551 69.2168 18.523 69.2262 18.4911L69.65 17H73.0133L73.4372 18.4911C73.4465 18.523 73.4661 18.551 73.493 18.5708C73.5198 18.5906 73.5524 18.6011 73.5858 18.6007H75.7788C75.808 18.6007 75.836 18.5892 75.8566 18.5686C75.8773 18.548 75.8889 18.5202 75.8889 18.4911C75.8905 18.4791 75.8905 18.4669 75.8889 18.4549L75.89 18.4571ZM70.2258 14.9848L71.2243 11.4698C71.228 11.4552 71.2346 11.4414 71.2438 11.4295C71.253 11.4175 71.2646 11.4076 71.2778 11.4003C71.291 11.393 71.3056 11.3885 71.3206 11.387C71.3357 11.3856 71.3509 11.3873 71.3653 11.3919C71.3838 11.3974 71.4006 11.4073 71.4143 11.4209C71.4279 11.4345 71.438 11.4513 71.4434 11.4698L72.4419 14.9848C72.4528 15.023 72.448 15.064 72.4286 15.0987C72.4092 15.1335 72.3768 15.1591 72.3385 15.1701C72.3251 15.1735 72.3115 15.1754 72.2977 15.1756H70.37C70.3303 15.1753 70.2923 15.1595 70.2641 15.1317C70.2359 15.1038 70.2198 15.066 70.2192 15.0265C70.2193 15.0123 70.2215 14.9983 70.2258 14.9848ZM56.7342 8.5435H58.7632V8.5424C58.8042 8.5424 58.8435 8.55854 58.8726 8.58729C58.9016 8.61605 58.9181 8.65509 58.9184 8.6959V18.4538C58.9184 18.4948 58.9021 18.5341 58.873 18.5631C58.8438 18.5921 58.8044 18.6084 58.7632 18.6084H56.7342C56.6931 18.6084 56.6536 18.5921 56.6245 18.5631C56.5953 18.5341 56.579 18.4948 56.579 18.4538V14.7655C56.579 14.7245 56.5626 14.6852 56.5335 14.6562C56.5044 14.6272 56.4649 14.6109 56.4238 14.6109H53.2411C53.1999 14.6109 53.1604 14.6272 53.1313 14.6562C53.1022 14.6852 53.0858 14.7245 53.0858 14.7655V18.4538C53.0855 18.4946 53.0691 18.5337 53.04 18.5624C53.0109 18.5912 52.9716 18.6073 52.9306 18.6073H50.9016C50.8606 18.6073 50.8213 18.5912 50.7923 18.5624C50.7632 18.5337 50.7467 18.4946 50.7464 18.4538V8.6959C50.7464 8.6549 50.7628 8.61558 50.7919 8.58658C50.821 8.55759 50.8605 8.54131 50.9016 8.54131H52.9306C52.9713 8.54158 53.0103 8.55766 53.0393 8.58612C53.0683 8.61458 53.085 8.65318 53.0858 8.6937V12.4576C53.0858 12.4986 53.1022 12.5379 53.1313 12.5669C53.1604 12.5959 53.1999 12.6122 53.2411 12.6122H56.4238C56.4441 12.6122 56.4643 12.6082 56.4832 12.6004C56.502 12.5927 56.5191 12.5813 56.5335 12.5669C56.5479 12.5526 56.5594 12.5355 56.5672 12.5168C56.575 12.498 56.579 12.4779 56.579 12.4576V8.69699C56.5793 8.65618 56.5958 8.61714 56.6248 8.58839C56.6539 8.55963 56.6932 8.5435 56.7342 8.5435Z" fill="#3A7888"/>
    <path d="M18.6031 7.7189C18.6031 7.5701 18.4537 7.42131 18.2441 7.36179L15.7319 6.43966C15.3135 6.2611 14.835 6.46941 14.835 6.76743V17.25C14.835 17.3988 14.9844 17.5773 15.1338 17.6368L17.7058 18.559C18.0947 18.7078 18.6031 18.4994 18.6031 18.1717V7.7189ZM13.9078 4.05595C13.9078 3.90673 13.7584 3.75793 13.5488 3.69841L11.037 2.77628C10.6183 2.59772 10.1397 2.80604 10.1397 3.10406V9.4764C10.1397 9.6252 10.2891 9.80375 10.4385 9.86369L13.0105 10.7858C13.3994 10.935 13.9078 10.7263 13.9078 10.3989V4.05595ZM13.9078 15.5222C13.9078 15.3734 13.7584 15.2246 13.5488 15.1651L11.037 14.243C10.6183 14.0644 10.1397 14.2727 10.1397 14.5708V20.9431C10.1397 21.0919 10.2891 21.2704 10.4385 21.33L13.0105 22.2521C13.3994 22.4013 13.9078 22.1926 13.9078 21.8648V15.5222ZM9.21254 16.8031C9.21254 16.6543 9.06313 16.5051 8.85353 16.4456L6.34175 15.5235C5.92087 15.3449 5.44444 15.5532 5.44444 15.8513V22.6415C5.44444 22.7903 5.59385 22.9693 5.74326 23.0288L8.31523 23.9509C8.70412 24.1001 9.21254 23.8914 9.21254 23.564V16.8031ZM9.21254 1.3453C9.21254 1.1965 9.06313 1.04771 8.85353 0.988186L6.34175 0.0660556C5.92087 -0.112502 5.44444 0.0958149 5.44444 0.393831V7.18407C5.44444 7.33328 5.59385 7.51184 5.74326 7.57136L8.31523 8.49349C8.70412 8.64229 9.21254 8.43397 9.21254 8.1062V1.3453ZM4.5181 1.61356C4.5181 1.46476 4.36869 1.31554 4.15909 1.25602L1.64731 0.333893C1.22854 0.155335 0.75 0.363653 0.75 0.661668V22.4026C0.75 22.5514 0.899413 22.7299 1.04924 22.7894L3.62079 23.7116C4.00968 23.8604 4.5181 23.6521 4.5181 23.3243V1.61356Z" fill="#3A7888"/>
</svg>
