<svg width="61" height="61" viewBox="0 0 61 61" fill="none"
    xmlns="http://www.w3.org/2000/svg">
    <path d="M20 35.5755C24.1421 35.5755 27.5 32.2176 27.5 28.0755C27.5 23.9334 24.1421 20.5755 20 20.5755C15.8579 20.5755 12.5 23.9334 12.5 28.0755C12.5 32.2176 15.8579 35.5755 20 35.5755Z" stroke="#09363F" stroke-width="5" stroke-miterlimit="10"/>
    <path d="M45 28.0755H27.5" stroke="#09363F" stroke-width="5" stroke-miterlimit="10"/>
    <path d="M45 38.0755H35" stroke="#09363F" stroke-width="5" stroke-miterlimit="10"/>
    <path d="M42.5 58.0755H11.6665C9.23538 58.0755 6.90387 57.1097 5.18482 55.3907C3.46577 53.6716 2.5 51.3401 2.5 48.909V12.242C2.5 9.81088 3.46577 7.47937 5.18482 5.76032C6.90387 4.04127 9.23538 3.0755 11.6665 3.0755H42.5L57.5 32.3255L42.5 58.0755Z" stroke="#09363F" stroke-width="5" stroke-miterlimit="10"/>
</svg>
