<svg width="60" height="45" viewBox="0 0 60 45" fill="none"
    xmlns="http://www.w3.org/2000/svg">
    <path d="M33.7788 18.1865C34.6212 20.4341 34.7986 22.8766 34.2899 25.2223C33.7813 27.5681 32.608 29.7177 30.9103 31.4145L23.8393 38.4855C22.6786 39.6463 21.3005 40.5671 19.7839 41.1953C18.2673 41.8235 16.6419 42.1468 15.0003 42.1468C13.3587 42.1468 11.7333 41.8235 10.2167 41.1953C8.70007 40.5671 7.32201 39.6463 6.16127 38.4855C5.00049 37.3248 4.07975 35.9467 3.45154 34.4301C2.82333 32.9135 2.5 31.2881 2.5 29.6465C2.5 28.0049 2.82333 26.3794 3.45154 24.8628C4.07975 23.3462 5.00049 21.9682 6.16127 20.8075L13.2323 13.7365C15.42 11.5484 18.3415 10.2495 21.4316 10.091C24.5217 9.93253 27.5607 10.9257 29.9608 12.8785" stroke="#09363F" stroke-width="5" stroke-miterlimit="10"/>
    <path d="M30.3015 32.4795C29.8757 32.1507 29.4714 31.795 29.091 31.4145C27.9303 30.2538 27.0094 28.8758 26.3812 27.3592C25.753 25.8426 25.4297 24.2171 25.4297 22.5755C25.4297 20.9339 25.753 19.3085 26.3812 17.7919C27.0094 16.2753 27.9303 14.8972 29.091 13.7365L36.162 6.66551C37.3228 5.50473 38.7008 4.58393 40.2174 3.95572C41.734 3.32751 43.3594 3.00418 45.001 3.00418C46.6426 3.00418 48.2681 3.32751 49.7847 3.95572C51.3013 4.58393 52.6793 5.50473 53.84 6.66551C55.0008 7.82625 55.9216 9.20426 56.5498 10.7209C57.178 12.2375 57.5014 13.8629 57.5014 15.5045C57.5014 17.1461 57.178 18.7716 56.5498 20.2882C55.9216 21.8048 55.0008 23.1828 53.84 24.3435L46.769 31.4145C45.5321 32.6542 44.0478 33.6194 42.4129 34.2473C40.7781 34.8752 39.0293 35.1516 37.2805 35.0585" stroke="#09363F" stroke-width="5" stroke-miterlimit="10"/>
</svg>
