<svg width="66" height="66" viewBox="0 0 66 66" fill="none"
    xmlns="http://www.w3.org/2000/svg">
    <path d="M52.0909 35.7273V54.8182C52.0909 56.9881 51.2289 59.0692 49.6945 60.6036C48.1601 62.138 46.079 63 43.9091 63H3V11.1818C3 9.01187 3.862 6.93078 5.39639 5.39639C6.93078 3.862 9.01187 3 11.1818 3H43.9091C46.079 3 48.1601 3.862 49.6945 5.39639C51.2289 6.93078 52.0909 9.01187 52.0909 11.1818V13.9091" stroke="#09363F" stroke-width="5" stroke-miterlimit="10"/>
    <path d="M39.4406 46.3952L25.4355 47.2991L28.4901 33.6005L49.1034 15.9567C50.8001 14.5045 53.0041 13.7858 55.2307 13.9587C57.4573 14.1316 59.5241 15.1819 60.9763 16.8785C62.4285 18.5752 63.1473 20.7792 62.9746 23.0058C62.8018 25.2324 61.7516 27.2991 60.055 28.7514L39.4406 46.3952Z" stroke="#09363F" stroke-width="5" stroke-miterlimit="10"/>
</svg>
