<svg width="20" height="20" viewBox="0 0 20 20" fill="none"
    xmlns="http://www.w3.org/2000/svg">
    <path fill-rule="evenodd" clip-rule="evenodd" d="M0.833496 17.5001L4.23207 14.1015L5.42903 15.2985L2.03046 18.6971L0.833496 17.5001Z" fill="#0E6173"/>
    <path fill-rule="evenodd" clip-rule="evenodd" d="M11.25 14.1666C14.2416 14.1666 16.6667 11.7415 16.6667 8.74996C16.6667 5.75842 14.2416 3.33329 11.25 3.33329C8.25849 3.33329 5.83336 5.75842 5.83336 8.74996C5.83336 11.7415 8.25849 14.1666 11.25 14.1666ZM11.25 15.8333C15.162 15.8333 18.3334 12.662 18.3334 8.74996C18.3334 4.83794 15.162 1.66663 11.25 1.66663C7.33801 1.66663 4.1667 4.83794 4.1667 8.74996C4.1667 12.662 7.33801 15.8333 11.25 15.8333Z" fill="#0E6173"/>
</svg>
